<mxfile host="app.diagrams.net" modified="2024-05-19T12:29:11.055Z" agent="Mozilla/5.0 (Windows NT 10.0; Win64; x64) AppleWebKit/537.36 (KHTML, like Gecko) Chrome/123.0.0.0 Safari/537.36 OPR/109.0.0.0 (Edition Yx GX 03)" etag="f-pJbRjhuxsqjpz6zFJ2" version="24.4.4" type="device">
  <diagram name="Страница — 1" id="3eyvnUf1IJnXMaN2rb7C">
    <mxGraphModel dx="2220" dy="766" grid="1" gridSize="10" guides="1" tooltips="1" connect="1" arrows="1" fold="1" page="1" pageScale="1" pageWidth="827" pageHeight="1169" math="0" shadow="0">
      <root>
        <mxCell id="0" />
        <mxCell id="1" parent="0" />
        <mxCell id="HjgIF1_3ZtL_Il0yvQmo-1" value="" style="rounded=0;whiteSpace=wrap;html=1;" vertex="1" parent="1">
          <mxGeometry x="-170" y="100" width="530" height="640" as="geometry" />
        </mxCell>
        <mxCell id="HjgIF1_3ZtL_Il0yvQmo-2" value="Автоматизируемые элементы" style="text;html=1;align=center;verticalAlign=middle;whiteSpace=wrap;rounded=0;" vertex="1" parent="1">
          <mxGeometry x="-40" y="110" width="270" height="30" as="geometry" />
        </mxCell>
        <mxCell id="HjgIF1_3ZtL_Il0yvQmo-3" value="" style="rounded=0;whiteSpace=wrap;html=1;" vertex="1" parent="1">
          <mxGeometry x="450" y="100" width="530" height="640" as="geometry" />
        </mxCell>
        <mxCell id="HjgIF1_3ZtL_Il0yvQmo-4" value="Требования к системе&lt;span style=&quot;color: rgba(0, 0, 0, 0); font-family: monospace; font-size: 0px; text-align: start; text-wrap: nowrap;&quot;&gt;%3CmxGraphModel%3E%3Croot%3E%3CmxCell%20id%3D%220%22%2F%3E%3CmxCell%20id%3D%221%22%20parent%3D%220%22%2F%3E%3CmxCell%20id%3D%222%22%20value%3D%22%22%20style%3D%22rounded%3D0%3BwhiteSpace%3Dwrap%3Bhtml%3D1%3B%22%20vertex%3D%221%22%20parent%3D%221%22%3E%3CmxGeometry%20x%3D%2280%22%20y%3D%22310%22%20width%3D%22120%22%20height%3D%2260%22%20as%3D%22geometry%22%2F%3E%3C%2FmxCell%3E%3C%2Froot%3E%3C%2FmxGraphModel%3E&lt;/span&gt;" style="text;html=1;align=center;verticalAlign=middle;whiteSpace=wrap;rounded=0;" vertex="1" parent="1">
          <mxGeometry x="557" y="110" width="270" height="30" as="geometry" />
        </mxCell>
        <mxCell id="HjgIF1_3ZtL_Il0yvQmo-47" style="rounded=0;orthogonalLoop=1;jettySize=auto;html=1;entryX=0;entryY=0.5;entryDx=0;entryDy=0;dashed=1;endArrow=open;endFill=0;" edge="1" parent="1" source="HjgIF1_3ZtL_Il0yvQmo-6" target="HjgIF1_3ZtL_Il0yvQmo-33">
          <mxGeometry relative="1" as="geometry" />
        </mxCell>
        <mxCell id="HjgIF1_3ZtL_Il0yvQmo-48" style="rounded=0;orthogonalLoop=1;jettySize=auto;html=1;entryX=0;entryY=0.5;entryDx=0;entryDy=0;dashed=1;endArrow=open;endFill=0;" edge="1" parent="1" source="HjgIF1_3ZtL_Il0yvQmo-6" target="HjgIF1_3ZtL_Il0yvQmo-36">
          <mxGeometry relative="1" as="geometry" />
        </mxCell>
        <mxCell id="HjgIF1_3ZtL_Il0yvQmo-49" style="rounded=0;orthogonalLoop=1;jettySize=auto;html=1;entryX=0;entryY=0.5;entryDx=0;entryDy=0;dashed=1;endArrow=open;endFill=0;" edge="1" parent="1" source="HjgIF1_3ZtL_Il0yvQmo-6" target="HjgIF1_3ZtL_Il0yvQmo-45">
          <mxGeometry relative="1" as="geometry" />
        </mxCell>
        <mxCell id="HjgIF1_3ZtL_Il0yvQmo-6" value="" style="rounded=0;whiteSpace=wrap;html=1;" vertex="1" parent="1">
          <mxGeometry x="35" y="160" width="120" height="60" as="geometry" />
        </mxCell>
        <mxCell id="HjgIF1_3ZtL_Il0yvQmo-7" value="" style="rounded=0;whiteSpace=wrap;html=1;" vertex="1" parent="1">
          <mxGeometry x="35" y="160" width="10" height="60" as="geometry" />
        </mxCell>
        <mxCell id="HjgIF1_3ZtL_Il0yvQmo-8" value="Обработка заказа" style="text;html=1;align=center;verticalAlign=middle;whiteSpace=wrap;rounded=0;" vertex="1" parent="1">
          <mxGeometry x="65" y="175" width="60" height="30" as="geometry" />
        </mxCell>
        <mxCell id="HjgIF1_3ZtL_Il0yvQmo-52" style="rounded=0;orthogonalLoop=1;jettySize=auto;html=1;entryX=0;entryY=0.5;entryDx=0;entryDy=0;dashed=1;endArrow=open;endFill=0;" edge="1" parent="1" source="HjgIF1_3ZtL_Il0yvQmo-9" target="HjgIF1_3ZtL_Il0yvQmo-33">
          <mxGeometry relative="1" as="geometry" />
        </mxCell>
        <mxCell id="HjgIF1_3ZtL_Il0yvQmo-53" style="rounded=0;orthogonalLoop=1;jettySize=auto;html=1;entryX=0;entryY=0.75;entryDx=0;entryDy=0;dashed=1;endArrow=open;endFill=0;" edge="1" parent="1" source="HjgIF1_3ZtL_Il0yvQmo-9" target="HjgIF1_3ZtL_Il0yvQmo-36">
          <mxGeometry relative="1" as="geometry" />
        </mxCell>
        <mxCell id="HjgIF1_3ZtL_Il0yvQmo-9" value="" style="rounded=0;whiteSpace=wrap;html=1;" vertex="1" parent="1">
          <mxGeometry x="35" y="336" width="120" height="60" as="geometry" />
        </mxCell>
        <mxCell id="HjgIF1_3ZtL_Il0yvQmo-10" value="" style="rounded=0;whiteSpace=wrap;html=1;" vertex="1" parent="1">
          <mxGeometry x="35" y="336" width="10" height="60" as="geometry" />
        </mxCell>
        <mxCell id="HjgIF1_3ZtL_Il0yvQmo-11" value="Управление заказами" style="text;html=1;align=center;verticalAlign=middle;whiteSpace=wrap;rounded=0;" vertex="1" parent="1">
          <mxGeometry x="65" y="351" width="60" height="30" as="geometry" />
        </mxCell>
        <mxCell id="HjgIF1_3ZtL_Il0yvQmo-51" style="rounded=0;orthogonalLoop=1;jettySize=auto;html=1;entryX=0;entryY=0.5;entryDx=0;entryDy=0;dashed=1;endArrow=open;endFill=0;" edge="1" parent="1" source="HjgIF1_3ZtL_Il0yvQmo-12" target="HjgIF1_3ZtL_Il0yvQmo-42">
          <mxGeometry relative="1" as="geometry" />
        </mxCell>
        <mxCell id="HjgIF1_3ZtL_Il0yvQmo-12" value="" style="rounded=0;whiteSpace=wrap;html=1;" vertex="1" parent="1">
          <mxGeometry x="35" y="520" width="120" height="60" as="geometry" />
        </mxCell>
        <mxCell id="HjgIF1_3ZtL_Il0yvQmo-13" value="" style="rounded=0;whiteSpace=wrap;html=1;" vertex="1" parent="1">
          <mxGeometry x="35" y="520" width="10" height="60" as="geometry" />
        </mxCell>
        <mxCell id="HjgIF1_3ZtL_Il0yvQmo-14" value="Управление складом" style="text;html=1;align=center;verticalAlign=middle;whiteSpace=wrap;rounded=0;" vertex="1" parent="1">
          <mxGeometry x="65" y="535" width="60" height="30" as="geometry" />
        </mxCell>
        <mxCell id="HjgIF1_3ZtL_Il0yvQmo-50" style="rounded=0;orthogonalLoop=1;jettySize=auto;html=1;entryX=0;entryY=0.5;entryDx=0;entryDy=0;endArrow=open;endFill=0;dashed=1;" edge="1" parent="1" source="HjgIF1_3ZtL_Il0yvQmo-15" target="HjgIF1_3ZtL_Il0yvQmo-39">
          <mxGeometry relative="1" as="geometry" />
        </mxCell>
        <mxCell id="HjgIF1_3ZtL_Il0yvQmo-56" style="rounded=0;orthogonalLoop=1;jettySize=auto;html=1;entryX=0;entryY=0.5;entryDx=0;entryDy=0;dashed=1;endArrow=open;endFill=0;" edge="1" parent="1" source="HjgIF1_3ZtL_Il0yvQmo-15" target="HjgIF1_3ZtL_Il0yvQmo-30">
          <mxGeometry relative="1" as="geometry" />
        </mxCell>
        <mxCell id="HjgIF1_3ZtL_Il0yvQmo-15" value="" style="rounded=0;whiteSpace=wrap;html=1;" vertex="1" parent="1">
          <mxGeometry x="35" y="250" width="120" height="60" as="geometry" />
        </mxCell>
        <mxCell id="HjgIF1_3ZtL_Il0yvQmo-16" value="" style="rounded=0;whiteSpace=wrap;html=1;" vertex="1" parent="1">
          <mxGeometry x="35" y="250" width="10" height="60" as="geometry" />
        </mxCell>
        <mxCell id="HjgIF1_3ZtL_Il0yvQmo-17" value="Управление тех.заявками" style="text;html=1;align=center;verticalAlign=middle;whiteSpace=wrap;rounded=0;" vertex="1" parent="1">
          <mxGeometry x="65" y="265" width="60" height="30" as="geometry" />
        </mxCell>
        <mxCell id="HjgIF1_3ZtL_Il0yvQmo-54" style="rounded=0;orthogonalLoop=1;jettySize=auto;html=1;entryX=0;entryY=0.25;entryDx=0;entryDy=0;dashed=1;endArrow=open;endFill=0;" edge="1" parent="1" source="HjgIF1_3ZtL_Il0yvQmo-18" target="HjgIF1_3ZtL_Il0yvQmo-36">
          <mxGeometry relative="1" as="geometry" />
        </mxCell>
        <mxCell id="HjgIF1_3ZtL_Il0yvQmo-55" style="rounded=0;orthogonalLoop=1;jettySize=auto;html=1;entryX=0;entryY=0.75;entryDx=0;entryDy=0;dashed=1;endArrow=open;endFill=0;" edge="1" parent="1" source="HjgIF1_3ZtL_Il0yvQmo-18" target="HjgIF1_3ZtL_Il0yvQmo-45">
          <mxGeometry relative="1" as="geometry" />
        </mxCell>
        <mxCell id="HjgIF1_3ZtL_Il0yvQmo-18" value="" style="rounded=0;whiteSpace=wrap;html=1;" vertex="1" parent="1">
          <mxGeometry x="35" y="420" width="120" height="60" as="geometry" />
        </mxCell>
        <mxCell id="HjgIF1_3ZtL_Il0yvQmo-19" value="" style="rounded=0;whiteSpace=wrap;html=1;" vertex="1" parent="1">
          <mxGeometry x="35" y="420" width="10" height="60" as="geometry" />
        </mxCell>
        <mxCell id="HjgIF1_3ZtL_Il0yvQmo-20" value="Управление товарами" style="text;html=1;align=center;verticalAlign=middle;whiteSpace=wrap;rounded=0;" vertex="1" parent="1">
          <mxGeometry x="65" y="435" width="60" height="30" as="geometry" />
        </mxCell>
        <mxCell id="HjgIF1_3ZtL_Il0yvQmo-21" value="&lt;i&gt;(from 5. Предполагаемые автоматизируемые элементы&lt;/i&gt;" style="text;html=1;align=center;verticalAlign=middle;whiteSpace=wrap;rounded=0;" vertex="1" parent="1">
          <mxGeometry x="-62" y="220" width="355" height="30" as="geometry" />
        </mxCell>
        <mxCell id="HjgIF1_3ZtL_Il0yvQmo-22" value="&lt;i&gt;(from 5. Предполагаемые автоматизируемые элементы&lt;/i&gt;" style="text;html=1;align=center;verticalAlign=middle;whiteSpace=wrap;rounded=0;" vertex="1" parent="1">
          <mxGeometry x="-82.5" y="580" width="355" height="30" as="geometry" />
        </mxCell>
        <mxCell id="HjgIF1_3ZtL_Il0yvQmo-23" value="&lt;i&gt;(from 5. Предполагаемые автоматизируемые элементы&lt;/i&gt;" style="text;html=1;align=center;verticalAlign=middle;whiteSpace=wrap;rounded=0;" vertex="1" parent="1">
          <mxGeometry x="-82.5" y="490" width="355" height="30" as="geometry" />
        </mxCell>
        <mxCell id="HjgIF1_3ZtL_Il0yvQmo-24" value="&lt;i&gt;(from 5. Предполагаемые автоматизируемые элементы&lt;/i&gt;" style="text;html=1;align=center;verticalAlign=middle;whiteSpace=wrap;rounded=0;" vertex="1" parent="1">
          <mxGeometry x="-70" y="306" width="355" height="30" as="geometry" />
        </mxCell>
        <mxCell id="HjgIF1_3ZtL_Il0yvQmo-25" value="&lt;i&gt;(from 5. Предполагаемые автоматизируемые элементы&lt;/i&gt;" style="text;html=1;align=center;verticalAlign=middle;whiteSpace=wrap;rounded=0;" vertex="1" parent="1">
          <mxGeometry x="-80" y="390" width="355" height="30" as="geometry" />
        </mxCell>
        <mxCell id="HjgIF1_3ZtL_Il0yvQmo-29" value="" style="rounded=0;whiteSpace=wrap;html=1;" vertex="1" parent="1">
          <mxGeometry x="632" y="175" width="138" height="75" as="geometry" />
        </mxCell>
        <mxCell id="HjgIF1_3ZtL_Il0yvQmo-30" value="" style="rounded=0;whiteSpace=wrap;html=1;" vertex="1" parent="1">
          <mxGeometry x="632" y="175" width="10" height="75" as="geometry" />
        </mxCell>
        <mxCell id="HjgIF1_3ZtL_Il0yvQmo-31" value="Автоматическое форматирование документов" style="text;html=1;align=center;verticalAlign=middle;whiteSpace=wrap;rounded=0;" vertex="1" parent="1">
          <mxGeometry x="680" y="197.5" width="60" height="30" as="geometry" />
        </mxCell>
        <mxCell id="HjgIF1_3ZtL_Il0yvQmo-32" value="" style="rounded=0;whiteSpace=wrap;html=1;" vertex="1" parent="1">
          <mxGeometry x="632" y="276" width="138" height="75" as="geometry" />
        </mxCell>
        <mxCell id="HjgIF1_3ZtL_Il0yvQmo-33" value="" style="rounded=0;whiteSpace=wrap;html=1;" vertex="1" parent="1">
          <mxGeometry x="632" y="276" width="10" height="75" as="geometry" />
        </mxCell>
        <mxCell id="HjgIF1_3ZtL_Il0yvQmo-34" value="Управление статусами заказов" style="text;html=1;align=center;verticalAlign=middle;whiteSpace=wrap;rounded=0;" vertex="1" parent="1">
          <mxGeometry x="680" y="298.5" width="60" height="30" as="geometry" />
        </mxCell>
        <mxCell id="HjgIF1_3ZtL_Il0yvQmo-35" value="" style="rounded=0;whiteSpace=wrap;html=1;" vertex="1" parent="1">
          <mxGeometry x="632" y="372.5" width="138" height="75" as="geometry" />
        </mxCell>
        <mxCell id="HjgIF1_3ZtL_Il0yvQmo-36" value="" style="rounded=0;whiteSpace=wrap;html=1;" vertex="1" parent="1">
          <mxGeometry x="632" y="372.5" width="10" height="75" as="geometry" />
        </mxCell>
        <mxCell id="HjgIF1_3ZtL_Il0yvQmo-37" value="Учёт остатков товаров" style="text;html=1;align=center;verticalAlign=middle;whiteSpace=wrap;rounded=0;" vertex="1" parent="1">
          <mxGeometry x="680" y="395" width="60" height="30" as="geometry" />
        </mxCell>
        <mxCell id="HjgIF1_3ZtL_Il0yvQmo-38" value="" style="rounded=0;whiteSpace=wrap;html=1;" vertex="1" parent="1">
          <mxGeometry x="632" y="470" width="138" height="75" as="geometry" />
        </mxCell>
        <mxCell id="HjgIF1_3ZtL_Il0yvQmo-39" value="" style="rounded=0;whiteSpace=wrap;html=1;" vertex="1" parent="1">
          <mxGeometry x="632" y="470" width="10" height="75" as="geometry" />
        </mxCell>
        <mxCell id="HjgIF1_3ZtL_Il0yvQmo-40" value="Регистрация и отслеживание заявок на&amp;nbsp; ремонт" style="text;html=1;align=center;verticalAlign=middle;whiteSpace=wrap;rounded=0;" vertex="1" parent="1">
          <mxGeometry x="665" y="492.5" width="90" height="30" as="geometry" />
        </mxCell>
        <mxCell id="HjgIF1_3ZtL_Il0yvQmo-41" value="" style="rounded=0;whiteSpace=wrap;html=1;" vertex="1" parent="1">
          <mxGeometry x="632" y="565" width="138" height="75" as="geometry" />
        </mxCell>
        <mxCell id="HjgIF1_3ZtL_Il0yvQmo-42" value="" style="rounded=0;whiteSpace=wrap;html=1;" vertex="1" parent="1">
          <mxGeometry x="632" y="565" width="10" height="75" as="geometry" />
        </mxCell>
        <mxCell id="HjgIF1_3ZtL_Il0yvQmo-43" value="Автоматизация инвентаризации" style="text;html=1;align=center;verticalAlign=middle;whiteSpace=wrap;rounded=0;" vertex="1" parent="1">
          <mxGeometry x="680" y="587.5" width="60" height="30" as="geometry" />
        </mxCell>
        <mxCell id="HjgIF1_3ZtL_Il0yvQmo-44" value="" style="rounded=0;whiteSpace=wrap;html=1;" vertex="1" parent="1">
          <mxGeometry x="632" y="650" width="138" height="75" as="geometry" />
        </mxCell>
        <mxCell id="HjgIF1_3ZtL_Il0yvQmo-45" value="" style="rounded=0;whiteSpace=wrap;html=1;" vertex="1" parent="1">
          <mxGeometry x="632" y="650" width="10" height="75" as="geometry" />
        </mxCell>
        <mxCell id="HjgIF1_3ZtL_Il0yvQmo-46" value="Безопасность данных" style="text;html=1;align=center;verticalAlign=middle;whiteSpace=wrap;rounded=0;" vertex="1" parent="1">
          <mxGeometry x="680" y="672.5" width="60" height="30" as="geometry" />
        </mxCell>
      </root>
    </mxGraphModel>
  </diagram>
</mxfile>
